# AST/ASF file generated using VICON BodyLanguage
# -----------------------------------------------
:version 1.10
:name VICON
:units
  mass 1.0
  length 0.45
  angle deg
:documentation
   .ast/.asf automatically generated from VICON data using
   VICON BodyBuilder and BodyLanguage model FoxedUp or BRILLIANT.MOD
:root
   order TX TY TZ RX RY RZ
   axis XYZ
   position 0 0 0  
   orientation 0 0 0 
:bonedata
  begin
     id 1 
     name lhipjoint
     direction 0.610259 -0.730986 0.305356 
     length 2.50941 
     axis 0 0 0  XYZ
  end
  begin
     id 2 
     name lfemur
     direction 0.34202 -0.939693 0  
     length 7.48822  
     axis 0 0 20  XYZ
    dof rx ry rz
    limits (-160.0 20.0)
           (-70.0 70.0)
           (-60.0 70.0)
  end
  begin
     id 3 
     name ltibia
     direction 0.34202 -0.939693 0   
     length 7.60141   
     axis 0 0 20   XYZ
    dof rx
    limits (-10.0 170.0)
  end
  begin
     id 4 
     name lfoot
     direction 0.0673488 -0.185039 0.980421   
     length 2.04049   
     axis -90 7.62852e-016 20   XYZ
    dof rx rz
    limits (-45.0 90.0)
           (-70.0 20.0)
  end
  begin
     id 5 
     name ltoes
     direction 1.5356e-011 -4.21729e-011 1   
     length 1.02897   
     axis -90 7.62852e-016 20   XYZ
    dof rx
    limits (-90.0 20.0)
  end
  begin
     id 6 
     name rhipjoint
     direction -0.57612 -0.754205 0.315056   
     length 2.43216  
     axis 0 0 0  XYZ 
  end
  begin
     id 7 
     name rfemur
     direction -0.34202 -0.939693 0   
     length 7.42799   
     axis 0 0 -20   XYZ
    dof rx ry rz
    limits (-160.0 20.0)
           (-70.0 70.0)
           (-70.0 60.0)
  end
  begin
     id 8 
     name rtibia
     direction -0.34202 -0.939693 0   
     length 7.69484   
     axis 0 0 -20   XYZ
    dof rx
    limits (-10.0 170.0)
 end
 begin
     id 9 
     name rfoot
     direction -0.111837 -0.30727 0.945028   
     length 2.15769  
     axis -90 -7.62852e-016 -20   XYZ
    dof rx rz
    limits (-45.0 90.0)
           (-20.0 70.0)
  end
  begin
     id 10 
     name rtoes
     direction -1.53539e-011 -4.21878e-011 1   
     length 1.07391   
     axis -90 -7.62852e-016 -20   XYZ
    dof rx
    limits (-90.0 20.0)
  end
  begin
     id 11 
     name lowerback
     direction 0.00552624 0.990109 -0.140195   
     length 2.12403   
     axis 0 0 0   XYZ
    dof rx ry rz
    limits (-20.0 45.0)
           (-30.0 30.0)
           (-30.0 30.0)
  end
  begin
     id 12 
     name upperback
     direction 0.00361898 0.999976 -0.00584723   
     length 2.13232   
     axis 0 0 0   XYZ
    dof rx ry rz
    limits (-20.0 45.0)
           (-30.0 30.0)
           (-30.0 30.0)
  end
  begin
     id 13 
     name thorax
     direction -0.000331275 0.998253 0.0590847   
     length 2.17688   
     axis 0 0 0   XYZ
    dof rx ry rz
    limits (-20.0 45.0)
           (-30.0 30.0)
           (-30.0 30.0)
  end
  begin
     id 14 
     name lowerneck
     direction -0.0561561 0.979832 0.19177   
     length 1.64159   
     axis 0 0 0   XYZ
    dof rx ry rz
    limits (-20.0 45.0)
           (-30.0 30.0)
           (-30.0 30.0)
  end
  begin
     id 15 
     name upperneck
     direction 0.0827153 0.979385 -0.184293   
     length 1.68939   
     axis 0 0 0   XYZ
    dof rx ry rz
    limits (-20.0 45.0)
           (-30.0 30.0)
           (-30.0 30.0)
  end
  begin
     id 16
     name head
     direction 0.0278583 0.995936 -0.0856488  
     length 1.70207  
     axis 0 0 0   XYZ
    dof rx ry rz
    limits (-20.0 45.0)
           (-30.0 30.0)
           (-30.0 30.0)
  end
  begin
     id 17 
     name lclavicle
     direction 0.950993 0.301131 -0.0702275  
     length 3.41652  
     axis 0 0 0   XYZ
    dof ry rz
    limits (-20.0 10.0)
           (0.0 20.0)
  end
  begin
     id 18 
     name lhumerus
     direction 1 -4.48981e-011 -3.9662e-029   
     length 5.32955   
     axis 180 -30 -90   XYZ
    dof rx ry rz
    limits (-60.0 90.0)
           (-90.0 90.0)
           (-90.0 90.0)
  end
  begin
     id 19
     name lradius
     direction 1 -4.48925e-011 -9.0549e-027   
     length 3.69232   
     axis 180 -30 -90   XYZ
    dof rx
    limits (-10.0 170.0)
  end
  begin
     id 20
     name lwrist
     direction 1 -4.49007e-011 -1.49005e-026   
     length 1.84616   
     axis 9.0955e-015 90 90   XYZ
    dof ry
    limits (-180.0 0.0)
 end
  begin
     id 21 
     name lhand
     direction 1 -4.49016e-011 -2.98023e-026   
     length 0.536598   
     axis 1.90115e-014 90 90   XYZ
    dof rx rz
    limits (-90.0 90.0)
           (-45.0 45.0)
  end
  begin
     id 22 
     name lfingers
     direction 1 -4.48924e-011 -5.9578e-026   
     length 0.432619   
     axis 3.80223e-014 90 90   XYZ
    dof rx
    limits (0.0 90.0)
  end
  begin
     id 23
     name lthumb
     direction 0.707107 -6.34947e-011 0.707107   
     length 0.621157   
     axis -90 45 -3.84942e-014   XYZ
    dof rx rz
    limits (-45.0 45.0)
           (-45.0 45.0)
  end
  begin
     id 24 
     name rclavicle
     direction -0.955495 0.276497 -0.102848   
     length 3.36357  
     axis 0 0 0   XYZ 
    dof ry rz
    limits (-10.0 20.0)
           (-20.0 0.0)
  end
  begin
     id 25 
     name rhumerus
     direction -1 -4.48961e-011 3.30983e-027  
     length 5.23431   
     axis 180 30 90   XYZ
    dof rx ry rz
    limits (-90.0 60.0)
           (-90.0 90.0)
           (-90.0 90.0)
  end
  begin
     id 26 
     name rradius
     direction -1 -4.48965e-011 -6.63263e-027   
     length 3.55301   
     axis 180 30 90   XYZ
    dof rx
    limits (-10.0 170.0)
  end
  begin
     id 27 
     name rwrist
     direction -1 -4.48942e-011 -1.48958e-026   
     length 1.77651   
     axis 9.0955e-015 -90 -90   XYZ
    dof ry
    limits (-180.0 0.0)
  end
  begin
     id 28
     name rhand
     direction -1 -4.48977e-011 -2.97966e-026   
     length 0.772522   
     axis 1.90115e-014 -90 -90   XYZ
    dof rx rz
    limits (-90.0 90.0)
           (-45.0 45.0)
  end
  begin
     id 29
     name rfingers
     direction -1 -4.49135e-011 -5.96389e-026   
     length 0.622827   
     axis 3.80223e-014 -90 -90   XYZ
    dof rx
    limits (0.0 90.0)
  end
  begin
     id 30
     name rthumb
     direction -0.707107 -6.34969e-011 0.707107   
     length 0.894259   
     axis -90 -45 3.84942e-014   XYZ
    dof rx rz
    limits (-45.0 45.0)
           (-45.0 45.0)
  end
:hierarchy
  begin
    root lhipjoint rhipjoint lowerback
    lhipjoint lfemur
    lfemur ltibia
    ltibia lfoot
    lfoot ltoes
    rhipjoint rfemur
    rfemur rtibia
    rtibia rfoot
    rfoot rtoes
    lowerback upperback
    upperback thorax
    thorax lowerneck lclavicle rclavicle
    lowerneck upperneck
    upperneck head
    lclavicle lhumerus
    lhumerus lradius
    lradius lwrist
    lwrist lhand lthumb
    lhand lfingers
    rclavicle rhumerus
    rhumerus rradius
    rradius rwrist
    rwrist rhand rthumb
    rhand rfingers
  end

#!OML:ASF F:\VICON\USERDATA\INSTALL\rory3\rory3.ASF
:FULLY-SPECIFIED
:DEGREES
98
root -4.25101 17.8349 -4.43411 6.88404 52.5975 7.876
lowerback 10.9523 0.034648 -5.16449
upperback 0.861793 -0.557455 0.0998834
thorax -5.19453 -0.148083 3.10173
lowerneck -15.996 -6.36687 -11.7667
upperneck 34.7024 -7.79265 7.29179
head 15.771 -3.67055 3.79934
rclavicle -1.51076e-014 9.54166e-015
rhumerus -31.675 -11.7039 -79.5324
rradius 33.2756
rwrist 5.81088
rhand -15.4494 8.93877
rfingers 7.12502
rthumb 10.7313 -20.7671
lclavicle -1.51076e-014 9.54166e-015
lhumerus -27.1739 2.87687 83.3437
lradius 34.7155
lwrist -3.46406
lhand -20.7641 28.8352
lfingers 7.12502
lthumb 5.60212 58.7411
rfemur -27.4976 -7.72879 16.6114
rtibia 24.2956
rfoot -0.121513 -7.76024
rtoes 8.2312
lfemur 12.6524 3.54156 -28.9989
ltibia 1.43125e-014
lfoot -5.71269 -6.77476
ltoes 1.13698
99
root -4.1706 17.8291 -4.35662 6.87349 52.6988 7.77979
lowerback 10.8904 -0.00903639 -5.12401
upperback 0.884326 -0.602744 0.164617
thorax -5.13168 -0.172802 3.15289
lowerneck -16.005 -6.40444 -11.9081
upperneck 34.7203 -7.82992 7.36708
head 15.8008 -3.69489 3.85045
rclavicle -9.54166e-015 9.93923e-015
rhumerus -31.6801 -11.9377 -79.3823
rradius 32.7756
rwrist 6.14508
rhand -15.6628 9.0688
rfingers 7.12502
rthumb 10.5255 -20.6477
lclavicle -9.54166e-015 9.93923e-015
lhumerus -27.9322 2.58127 83.3135
lradius 35.4527
lwrist -3.16084
lhand -20.7762 28.5863
lfingers 7.12502
lthumb 5.59046 58.4925
rfemur -27.5008 -7.41373 16.6976
rtibia 23.0764
rfoot -1.04772 -8.19819
rtoes 4.29544
lfemur 12.9494 3.27812 -28.9141
ltibia 3.18055e-014
lfoot -5.68541 -6.51546
ltoes 0.479424
100
root -4.08977 17.8218 -4.27872 6.98124 52.8255 7.88579
lowerback 10.9149 -0.0508792 -5.14341
upperback 0.890821 -0.663228 0.133677
thorax -5.13311 -0.202412 3.14058
lowerneck -15.9345 -6.42079 -11.9113
upperneck 34.7495 -7.87352 7.40069
head 15.8067 -3.71004 3.85991
rclavicle -4.73604e-014 -6.75868e-015
rhumerus -31.8008 -12.1126 -79.3607
rradius 32.3707
rwrist 6.26824
rhand -15.7162 8.94025
rfingers 7.12502
rthumb 10.4739 -20.7788
lclavicle -4.73604e-014 -6.75868e-015
lhumerus -28.7971 1.62067 83.1725
lradius 36.41
lwrist -2.12874
lhand -20.7844 28.5069
lfingers 7.12502
lthumb 5.58251 58.4133
rfemur -27.4864 -7.40305 16.7456
rtibia 22.0566
rfoot -2.42683 -8.481
rtoes 0.434726
lfemur 13.2667 2.98278 -28.9517
ltibia -3.81667e-014
lfoot -5.58355 -6.31922
ltoes -0.660454
101
root -4.00622 17.8122 -4.19751 7.33505 52.9124 8.25049
lowerback 10.9146 -0.0616806 -5.28788
upperback 0.853893 -0.702237 0.0218277
thorax -5.16813 -0.217831 3.11054
lowerneck -15.8613 -6.44057 -11.761
upperneck 34.8702 -7.93592 7.33018
head 15.8442 -3.72595 3.79695
rclavicle -3.18055e-015 -1.39149e-014
rhumerus -32.0517 -12.6429 -79.2568
rradius 32.0023
rwrist 6.55818
rhand -15.77 8.86301
rfingers 7.12502
rthumb 10.422 -20.8587
lclavicle -3.18055e-015 -1.39149e-014
lhumerus -28.1836 2.44348 83.2348
lradius 35.5775
lwrist -2.98884
lhand -20.8007 28.4276
lfingers 7.12502
lthumb 5.5668 58.3345
rfemur -27.5454 -7.50466 16.6699
rtibia 21.2973
rfoot -4.06236 -8.48667
rtoes -2.84174
lfemur 13.575 2.70013 -29.1471
ltibia -4.45278e-014
lfoot -5.58703 -6.20089
ltoes -1.58032
102
root -3.92305 17.8047 -4.11314 7.63125 52.9115 8.55252
lowerback 10.9046 -0.0701793 -5.47202
upperback 0.814782 -0.739276 -0.0242101
thorax -5.19887 -0.230818 3.17171
lowerneck -15.8562 -6.44321 -11.6958
upperneck 34.9944 -7.93249 7.24508
head 15.8955 -3.72686 3.75388
rclavicle 1.23893e-013 -3.97569e-016
rhumerus -32.2757 -12.9896 -79.0967
rradius 31.598
rwrist 6.88628
rhand -15.8292 8.89352
rfingers 7.12502
rthumb 10.3649 -20.831
lclavicle 1.23893e-013 -3.97569e-016
lhumerus -27.6444 3.19551 83.2054
lradius 34.7519
lwrist -3.65534
lhand -20.6264 28.1656
lfingers 7.12502
lthumb 5.73508 58.068
rfemur -27.6109 -7.24455 16.5277
rtibia 20.8116
rfoot -5.74397 -8.59754
rtoes -2.70694
lfemur 13.9414 2.50214 -29.2801
ltibia 5.56597e-014
lfoot -5.63905 -6.13087
ltoes -1.26777
103
root -3.84118 17.8075 -4.02899 7.85369 52.8866 8.69589
lowerback 10.8115 -0.107768 -5.62778
upperback 0.776858 -0.802415 0.00611031
thorax -5.17841 -0.258191 3.29992
lowerneck -15.8758 -6.40193 -11.755
upperneck 35.0884 -7.85102 7.24695
head 15.94 -3.70028 3.78453
rclavicle -2.72335e-014 5.1684e-015
rhumerus -32.4629 -13.1069 -78.9493
rradius 31.2055
rwrist 7.14322
rhand -15.7099 8.91834
rfingers 7.12502
rthumb 10.48 -20.8004
lclavicle -2.72335e-014 5.1684e-015
lhumerus -28.32 3.13721 83.1128
lradius 35.2283
lwrist -3.42622
lhand -20.4797 28.1724
lfingers 7.12502
lthumb 5.8767 58.0709
rfemur -27.7518 -7.12055 16.5911
rtibia 20.4852
rfoot -6.73489 -8.52262
rtoes -2.63792
lfemur 14.2635 2.3258 -29.2951
ltibia 9.54166e-015
lfoot -5.60375 -6.11895
ltoes -1.32943
104
root -3.76098 17.81 -3.94513 7.93255 52.9187 8.74355
lowerback 10.7682 -0.148349 -5.74702
upperback 0.81234 -0.862168 0.0860625
thorax -5.10798 -0.286921 3.45926
lowerneck -15.9069 -6.38013 -11.8802
upperneck 35.1076 -7.78519 7.27872
head 15.958 -3.68512 3.83354
rclavicle 3.95581e-014 2.78299e-015
rhumerus -32.5141 -13.2871 -78.7579
rradius 30.7806
rwrist 7.34841
rhand -15.371 8.85919
rfingers 7.12502
rthumb 10.8069 -20.8428
lclavicle 3.95581e-014 2.78299e-015
lhumerus -29.1013 2.29501 83.1104
lradius 36.0138
lwrist -2.34031
lhand -20.6677 28.5467
lfingers 7.12502
lthumb 5.69514 58.4502
rfemur -27.78 -7.03698 16.741
rtibia 20.2634
rfoot -7.09176 -8.41816
rtoes -5.41977
lfemur 14.6437 2.10982 -29.2312
ltibia 3.18055e-015
lfoot -5.48904 -6.14433
ltoes -1.83235
105
root -3.6775 17.8028 -3.86101 7.93418 52.9717 8.8017
lowerback 10.737 -0.151543 -5.83514
upperback 0.928433 -0.866487 0.146079
thorax -4.96529 -0.292923 3.57122
lowerneck -15.9049 -6.41196 -11.8996
upperneck 35.0498 -7.80016 7.21241
head 15.9285 -3.70281 3.80194
rclavicle -1.04561e-013 -1.70955e-014
rhumerus -32.46 -13.5876 -78.5388
rradius 30.2827
rwrist 7.61026
rhand -15.1985 8.72052
rfingers 7.12502
rthumb 10.9733 -20.9727
lclavicle -1.04561e-013 -1.70955e-014
lhumerus -28.3444 3.36193 83.2873
lradius 35.0529
lwrist -3.30736
lhand -20.8723 28.1335
lfingers 7.12502
lthumb 5.49762 58.0422
rfemur -27.681 -6.98198 16.833
rtibia 20.1836
rfoot -7.11369 -8.36531
rtoes -6.48974
lfemur 15.1054 1.8915 -29.2014
ltibia 9.54166e-015
lfoot -5.41851 -6.11253
ltoes -3.00824
106
root -3.58881 17.7984 -3.77588 7.92996 53.0373 8.80086
lowerback 10.7909 -0.111806 -5.67525
upperback 0.896483 -0.802593 0.0854362
thorax -5.03879 -0.262555 3.4089
lowerneck -15.6976 -6.46487 -11.8695
upperneck 35.0629 -7.92573 7.25517
head 15.9034 -3.74767 3.7957
rclavicle -1.6201e-014 2.0276e-014
rhumerus -32.7373 -13.9598 -78.3523
rradius 29.8238
rwrist 7.75476
rhand -15.2133 8.64598
rfingers 7.12502
rthumb 10.959 -21.048
lclavicle -1.6201e-014 2.0276e-014
lhumerus -27.8479 3.81707 83.3351
lradius 34.2367
lwrist -3.99029
lhand -20.7727 27.9967
lfingers 7.12502
lthumb 5.59382 57.9028
rfemur -27.6252 -7.22443 17.0525
rtibia 20.2514
rfoot -6.77238 -8.16441
rtoes -6.0022
lfemur 15.5256 1.659 -29.1392
ltibia 4.13472e-014
lfoot -5.29693 -6.10328
ltoes -3.80849
107
root -3.50322 17.7952 -3.69038 8.02893 52.9778 8.91725
lowerback 10.8207 -0.0640116 -5.74434
upperback 0.882598 -0.750378 0.0769494
thorax -5.07461 -0.234042 3.43186
lowerneck -15.6405 -6.49026 -11.8828
upperneck 35.1827 -7.95926 7.23673
head 15.9547 -3.766 3.7895
rclavicle -5.97348e-014 7.95139e-015
rhumerus -32.9415 -14.2403 -78.1545
rradius 29.363
rwrist 7.94037
rhand -15.2105 8.70338
rfingers 7.12502
rthumb 10.9617 -20.9905
lclavicle -5.97348e-014 7.95139e-015
lhumerus -28.4674 3.58169 83.3719
lradius 34.6685
lwrist -3.82453
lhand -20.7059 28.2007
lfingers 7.12502
lthumb 5.65829 58.1051
rfemur -27.6032 -7.33306 17.1874
rtibia 20.4523
rfoot -6.17111 -7.98285
rtoes -4.27837
lfemur 15.9136 1.53578 -29.1572
ltibia -1.90833e-014
lfoot -5.14571 -6.06959
ltoes -4.56128
108
root -3.41612 17.7926 -3.60067 8.13069 52.9565 9.03683
lowerback 10.8226 -0.0580287 -5.87214
upperback 0.867634 -0.757313 0.102349
thorax -5.08893 -0.233713 3.53198
lowerneck -15.6626 -6.50023 -11.914
upperneck 35.3354 -7.94623 7.18967
head 16.0348 -3.77028 3.78257
rclavicle -3.40419e-014 9.54166e-015
rhumerus -33.1787 -14.5225 -77.9458
rradius 28.9039
rwrist 8.32126
rhand -15.4975 8.81335
rfingers 7.12502
rthumb 10.6849 -20.895
lclavicle -3.40419e-014 9.54166e-015
lhumerus -28.7975 3.71632 83.3608
lradius 34.6533
lwrist -3.90712
lhand -20.7467 28.0948
lfingers 7.12502
lthumb 5.61888 58.0003
rfemur -27.5431 -7.53876 17.3676
rtibia 20.7352
rfoot -5.48627 -7.79926
rtoes -2.66378
lfemur 16.306 1.37426 -29.1716
ltibia -2.54444e-014
lfoot -4.9414 -6.09614
ltoes -5.35271
